<svg xmlns="http://www.w3.org/2000/svg" width="800" height="800" fill="none" viewBox="0 0 24 24"><path fill="url(#a)" d="M7.61128 5.00566c-.02285-1.67429-1.01143-1.98857-1.01143-1.98857s1.33143-.67429 2.25143.85143"/><path fill="url(#b)" d="M7.61128 5.00566c-.02285-1.67429-1.01143-1.98857-1.01143-1.98857s1.33143-.67429 2.25143.85143"/><path fill="url(#c)" d="M8.06263 4.38279c-.01143-.88-.01143-1.38857.60571-2.09715 0 0-.10285 1.15429.53715 1.60572.63999.45143-1.14286.49143-1.14286.49143Z"/><path fill="url(#d)" d="M8.06263 4.38279c-.01143-.88-.01143-1.38857.60571-2.09715 0 0-.10285 1.15429.53715 1.60572.63999.45143-1.14286.49143-1.14286.49143Z" opacity=".5"/><path fill="url(#e)" d="M15.5485 7.29136c-1.0971 1.70857-.7828 3.86854.7029 4.82284 1.4857.9543 3.5828.3429 4.68-1.36 1.0971-1.70855.7828-3.86856-.7029-4.82284-1.4857-.95429-3.5828-.34857-4.68 1.36Z"/><path fill="url(#f)" d="M8.43992 7.29136c1.09714 1.70857.78285 3.86854-.70286 4.82284-1.48572.9543-3.58286.3429-4.68-1.36-1.09715-1.70284-.78286-3.86856.70285-4.82284 1.48572-.95429 3.58286-.34857 4.68001 1.36Z"/><path fill="url(#g)" d="M16.137 7.81135c-.8743 1.35428-.6229 3.07425.56 3.82855 1.1828.76 2.8457.2743 3.72-1.08.8743-1.35427.6228-3.07427-.56-3.82855-1.1829-.76-2.8515-.27429-3.72 1.08Z"/><path fill="url(#h)" d="M19.8515 6.73126c.4628.29715.7771.74286.9428 1.25143-.52-.58857-1.72-1.14857-1.5257.01143.2114 1.30286-.3771 1.77143.5143 3.28568-.1543.1315-.3143.2458-.4857.3429-.1029-.0171-.1772-.04-.1772-.04l-2.2628-4.56572c.8971-.72 2.0914-.86857 2.9943-.28572Z"/><path fill="url(#i)" d="M7.84569 7.81125c.87428 1.35429.62285 3.07425-.56001 3.82855-1.18285.76-2.84571.2743-3.72-1.08-.87428-1.35426-.62285-3.07426.56-3.82855 1.18286-.75429 2.85143-.27429 3.72001 1.08Z"/><path fill="url(#j)" d="M4.13133 6.73126c-.46285.29715-.77714.74286-.94285 1.25143.52-.58857 1.72-1.14857 1.52571.01143-.21143 1.30286.37714 1.77143-.51428 3.28568.15428.1315.31428.2458.48571.3429.10286-.0171.17714-.04.17714-.04l2.26857-4.56572c-.90285-.72-2.09142-.86857-3-.28572Z"/><path fill="url(#k)" d="M20.7371 14.4456c0-.9028-.2229-1.7543-.6229-2.5257-.3771-.7314-.5771-1.5371-.5771-2.36v-.01714c0-3.71429-3.3829-6.72001-7.56-6.72001-4.17144 0-7.56001 3.01143-7.56001 6.72572v.04c.00571.82283-.19429 1.62283-.57143 2.35433-.39429.7657-.61714 1.6114-.61714 2.5085 0 2.7486 2.07428 5.0686 4.91428 5.7886.22857.0571.44571.1714.62857.32.90286.7314 2.01143 1.16 3.20573 1.16 1.1943 0 2.2971-.4286 3.2-1.1543.1886-.1486.4-.2628.6343-.32 2.8457-.72 4.9257-3.0457 4.9257-5.8Z"/><path fill="url(#l)" d="M20.7371 14.4456c0-.9028-.2229-1.7543-.6229-2.5257-.3771-.7314-.5771-1.5371-.5771-2.36v-.01714c0-3.71429-3.3829-6.72001-7.56-6.72001-4.17144 0-7.56001 3.01143-7.56001 6.72572v.04c.00571.82283-.19429 1.62283-.57143 2.35433-.39429.7657-.61714 1.6114-.61714 2.5085 0 2.7486 2.07428 5.0686 4.91428 5.7886.22857.0571.44571.1714.62857.32.90286.7314 2.01143 1.16 3.20573 1.16 1.1943 0 2.2971-.4286 3.2-1.1543.1886-.1486.4-.2628.6343-.32 2.8457-.72 4.9257-3.0457 4.9257-5.8Z" opacity=".15"/><path fill="url(#m)" d="M20.7371 14.4456c0-.9028-.2229-1.7543-.6229-2.5257-.3771-.7314-.5771-1.5371-.5771-2.36v-.01714c0-3.71429-3.3829-6.72001-7.56-6.72001-4.17144 0-7.56001 3.01143-7.56001 6.72572v.04c.00571.82283-.19429 1.62283-.57143 2.35433-.39429.7657-.61714 1.6114-.61714 2.5085 0 2.7486 2.07428 5.0686 4.91428 5.7886.22857.0571.44571.1714.62857.32.90286.7314 2.01143 1.16 3.20573 1.16 1.1943 0 2.2971-.4286 3.2-1.1543.1886-.1486.4-.2628.6343-.32 2.8457-.72 4.9257-3.0457 4.9257-5.8Z" opacity=".5"/><path fill="url(#n)" d="M3.23413 14.4456c0-.9028.22286-1.7543.62286-2.5257.37714-.7314.57714-1.5371.57714-2.36v-.01715c0-3.71428 3.38286-6.72 7.55997-6.72 4.1772 0 7.56 3.01143 7.56 6.72v.04c-.0057.82285.1943 1.62285.5715 2.35425.3942.7658.6171 1.6115.6171 2.5086 0 2.7486-2.0743 5.0686-4.9143 5.7886-.2286.0571-.4457.1714-.6286.32-.9028.7314-2.0114 1.16-3.2057 1.16-1.1943 0-2.29711-.4286-3.19997-1.1543-.18857-.1486-.4-.2629-.63428-.32-2.84572-.7143-4.92572-3.04-4.92572-5.7943Z" opacity=".5"/><path fill="url(#o)" d="M9.2284 8.41134c.8-.45714 1.7143.08572 1.7143.08572s-.2572-.71429-.7143-.94286c0 0 1.2857.08571 1.5714.88571 0 0 .6572-.28571.3429-.74285 0 0 .6-.02857.9143.71428.3143.74286 1.8-.05714 1.8-.05714s.04-.46857-.1886-.60571c0 0 1.16.13142 1.4686 1.04571 0 0 .6685-.38286 1.3143-.04 0 0-.4743.21714-.1886.66857 0 0 1.3086.11429 1.6743 1.16003 0 0-.3829-.3429-.9143-.3257 0 0 1.2171.84 1.3543 1.8685 0 0-.3829-.5314-.7257-.7828 0 0 .5885.96.2685 1.8514 0 0-.0571-.8629-.4743-1.2229-.4171-.36-11.90281-1.6571-12.69139-.4571-.78857 1.2-.66857 1.68-.66857 1.68s-.11428-1.6629.55429-2.3257c0 0-.05714-.1714-.32572-.04 0 0 .38286-.7257 1.16-.85716 0 0 .31429-.47428-.22857-.62857 0 0 .89715-.64571 1.61715-.32 0 0 .55428-.91428 1.16-1.24.00571 0-.25715.66286.20571.62857Z"/><path fill="url(#p)" d="M18.3713 11.6514c-.48-1.79996-2.3257-2.83996-4.1143-2.31425-.0114.00572-.0228.00572-.0343.01143-1.4571.44-3 .44-4.4571 0-.01143-.00571-.02286-.00571-.03428-.01143-1.79429-.52-3.63429.51429-4.11429 2.31425-.34857 1.3086.11429 2.6572 1.08 3.4972.25714.2228.38857.5657.33143.9086-.13714.8742-.08572 2.5714 1.95428 3.6342 1.05146.5486 1.63426 1.4972 3.00576 1.4972 1.3714 0 1.9542-.9486 3.0057-1.4972 2.0457-1.0628 2.0914-2.7542 1.9543-3.6342-.0515-.3429.08-.6858.3314-.9086.9771-.8457 1.44-2.1943 1.0914-3.4972Z"/><path fill="url(#q)" d="M18.3713 11.6514c-.48-1.79996-2.3257-2.83996-4.1143-2.31425-.0114.00572-.0228.00572-.0343.01143-1.4571.44-3 .44-4.4571 0-.01143-.00571-.02286-.00571-.03428-.01143-1.79429-.52-3.63429.51429-4.11429 2.31425-.34857 1.3086.11429 2.6572 1.08 3.4972.25714.2228.38857.5657.33143.9086-.13714.8742-.08572 2.5714 1.95428 3.6342 1.05146.5486 1.63426 1.4972 3.00576 1.4972 1.3714 0 1.9542-.9486 3.0057-1.4972 2.0457-1.0628 2.0914-2.7542 1.9543-3.6342-.0515-.3429.08-.6858.3314-.9086.9771-.8457 1.44-2.1943 1.0914-3.4972Z"/><path fill="url(#r)" d="M5.61135 11.6514c.48-1.79996 2.32572-2.83996 4.11429-2.31425.01143.00572.02286.00572.03429.01143 1.45717.44 2.99997.44 4.45717 0 .0114-.00571.0228-.00571.0343-.01143 1.7942-.52 3.6342.51429 4.1142 2.31425.3486 1.3086-.1142 2.6572-1.08 3.4972-.2571.2228-.3885.5657-.3314.9086.1372.8742.0857 2.5714-1.9543 3.6342-1.0514.5486-1.6343 1.4972-3.0057 1.4972s-1.9543-.9486-3.0057-1.4972c-2.04572-1.0628-2.09143-2.7542-1.95429-3.6342.05143-.3429-.08-.6858-.33143-.9086-.97143-.8457-1.44-2.1943-1.09143-3.4972Z"/><path fill="url(#s)" d="M5.61135 11.6514c.48-1.79996 2.32572-2.83996 4.11429-2.31425.01143.00572.02286.00572.03429.01143 1.45717.44 2.99997.44 4.45717 0 .0114-.00571.0228-.00571.0343-.01143 1.7942-.52 3.6342.51429 4.1142 2.31425.3486 1.3086-.1142 2.6572-1.08 3.4972-.2571.2228-.3885.5657-.3314.9086.1372.8742.0857 2.5714-1.9543 3.6342-1.0514.5486-1.6343 1.4972-3.0057 1.4972s-1.9543-.9486-3.0057-1.4972c-2.04572-1.0628-2.09143-2.7542-1.95429-3.6342.05143-.3429-.08-.6858-.33143-.9086-.97143-.8457-1.44-2.1943-1.09143-3.4972Z"/><path fill="url(#t)" d="M11.9944 15.8967c1.9143 0 1.8743-1.2743 1.2685-1.4571-.6057-.1829-.7428.3257-1.2685.3257s-.6686-.5086-1.2686-.3257c-.6.1828-.6457 1.4571 1.2686 1.4571Z"/><path fill="url(#u)" d="M8.57708 13.4282c.61224 0 1.10857-.504 1.10857-1.1257 0-.6217-.49633-1.1257-1.10857-1.1257-.61225 0-1.10857.504-1.10857 1.1257 0 .6217.49632 1.1257 1.10857 1.1257Z"/><path fill="url(#v)" d="M8.3598 12.2564c.19251 0 .34857-.1586.34857-.3543 0-.1956-.15606-.3542-.34857-.3542s-.34857.1586-.34857.3542c0 .1957.15606.3543.34857.3543Z" opacity=".5"/><path fill="url(#w)" d="M11.3542 15.0168c-.3143 0-.4-.3315-.5543-.2343-.1829.1143-.0972.4743.1428.6628.24.1886.5372.1315.6629.0286.2057-.1543.1371-.4571-.2514-.4571Z"/><path fill="url(#x)" d="M16.3428 16.1142c.0057-.04.0114-.08.0114-.1142-.0057-.1315-.08-.2515-.1943-.2972-.0571-.0228-.1257-.0286-.1828-.0114-1.2914.4114-2.6343.6171-3.9886.6171-1.3543 0-2.69713-.2057-3.98855-.6171-.06286-.0172-.12572-.0172-.18286.0114-.10857.0457-.18286.16-.19429.2914 0 .0458.00572.0915.01143.1372l.06857.3371c.01715.0629.03429.1315.05715.2.44 1.1772 1.59428 3.2457 4.22285 3.2457 2.6229 0 3.7771-2.0742 4.2229-3.2514.0228-.0628.04-.1257.0514-.1828l.0857-.3658Z"/><path fill="url(#y)" d="M11.9942 19.5941c1.0172 0 1.8-.3314 2.3943-.8-.6514-.3486-1.4457-.5714-2.3943-.5714-.9485 0-1.7428.2228-2.39996.5714.59426.4686 1.37716.8 2.39996.8Z"/><path fill="url(#z)" d="m16.2686 16.4742.0686-.3428c.0057-.0514.0114-.0972.0114-.1372-.0114-.1257-.08-.2457-.1943-.2914-.0571-.0228-.1257-.0286-.1828-.0114-1.2915.4114-2.6343.6171-3.9886.6171-1.3543 0-2.69714-.2057-3.98857-.6171-.06286-.0172-.12571-.0172-.18286.0114-.10857.0457-.18285.16-.19428.2914 0 .04.00571.0858.01143.1372l.06857.3428c.01714.0629.03428.1258.05714.2.17714.4743.47429 1.0972.93143 1.6686-.42857-.5828.10286-.9028 1.04571-.7771.94853.1314 2.24003.1314 2.24003.1314s1.2914-.0057 2.24-.1314c.9485-.1315 1.48.1943 1.0457.7771.4571-.5714.7543-1.1943.9314-1.6686.0457-.0742.0686-.1371.08-.2Z"/><path fill="url(#A)" d="M11.9943 16.6399c-1.3657 0-2.71429-.2114-4.02286-.6171l.01714.2c.03428.3886.28.7086.61143.7886 1.10857.2743 2.24569.4171 3.39429.4171 1.2343 0 2.4629-.1657 3.6514-.4857.1772-.0457.3086-.2229.3257-.4286l.04-.4971c-1.3028.4171-2.6571.6228-4.0171.6228Z"/><path fill="url(#B)" d="M10.7199 14.4393c.6-.1828.7429.3257 1.2686.3257s.6686-.5085 1.2686-.3257c.1828.0572.32.2172.3542.4115h.0115s-.2115-1.2629-1.64-1.2629c-1.4286 0-1.64 1.2629-1.64 1.2629l.0114.0057c.0514-.2.1829-.36.3657-.4172Z" opacity=".5"/><path fill="url(#C)" d="M15.4057 13.4282c.6122 0 1.1086-.504 1.1086-1.1257 0-.6217-.4964-1.1257-1.1086-1.1257-.6123 0-1.1086.504-1.1086 1.1257 0 .6217.4963 1.1257 1.1086 1.1257Z"/><path fill="url(#D)" d="M15.1884 12.2564c.1925 0 .3486-.1586.3486-.3543 0-.1956-.1561-.3542-.3486-.3542-.1925 0-.3486.1586-.3486.3542 0 .1957.1561.3543.3486.3543Z" opacity=".5"/><path fill="url(#E)" d="M11.3543 15.0173c-.3143 0-.4-.3315-.5543-.2343-.0743.0457-.1029.1371-.0971.24.0685-.1429.2228-.0629.3142.04.2858.3314.6915-.0172.5886.4114.2057-.1543.1372-.4571-.2514-.4571Z"/><path fill="url(#F)" d="M12.6283 15.0173c.3143 0 .4-.3315.5543-.2343.1828.1143.0971.4743-.1429.6628-.24.1886-.5371.1315-.6628.0286-.2057-.1543-.1315-.4571.2514-.4571Z"/><path fill="url(#G)" d="M12.6283 15.0173c.3143 0 .4-.3315.5543-.2343.0743.0457.1028.1371.0971.24-.0685-.1429-.2228-.0629-.3143.04-.2857.3314-.6914-.0172-.5885.4114-.2057-.1543-.1315-.4571.2514-.4571Z"/><path fill="url(#H)" d="M6.82852 18.171c-1.22286-1.8629-2.06286-1.72-2.17143-3.9543-.08-1.6229.25143-2.6571.71428-3.4114-.01714.0057-.04.0171-.05714.0285 0 0 .11429-.2171.34286-.4342.26857-.3486.56571-.62861.84571-.89718-.04571-.06286-.12571-.11429-.25714-.15429 0 0 .33714-.24571.76571-.35428.38286-.41143.66857-.85143.70857-1.48572.14286-2.22857 1.78857-4.68 4.26856-4.68-4.17141-.00571-7.55998 3.00572-7.55998 6.72v.01715c0 .82282-.19429 1.62852-.57715 2.36002-.4.7657-.62285 1.6228-.62285 2.5257 0 2.7543 2.08571 5.08 4.92571 5.7943.23428.0571.44571.1714.63429.32.90285.7257 2.00568 1.1543 3.19998 1.1543-1.6057-.0058-4.26284-2.1886-5.15998-3.5486Z" opacity=".5"/><path fill="url(#I)" d="M20.1143 11.9199c-.3771-.7314-.5771-1.5371-.5771-2.36v-.01715c0-3.71428-3.3829-6.72-7.56-6.72 2.4742 0 3.9257 2.47429 4.2685 4.68.0572.37715.2457.75429.48 1.11429.2172-.02286.4686.00571.72.13714 0 0-.3143.14286-.28.44572.0743.08571.1429.16571.2172.24571.3371.06286 1.2514.29714 1.5485 1.13719 0 0-.3028-.2686-.7428-.3143.0514.0514.0914.0971.1143.1314.1714.1657.28.3257.3257.3943.3257.3371.6743.8114.7371 1.3314 0 0-.1543-.2171-.36-.44.2286.6457.3486 1.4629.2972 2.5314-.1086 2.2343-.9486 2.0915-2.1715 3.9543-.8971 1.3657-3.5485 3.5429-5.16 3.5429 1.1943 0 2.2972-.4286 3.2-1.1543.1886-.1486.4-.2629.6343-.32 2.84-.7143 4.9257-3.0343 4.9257-5.7943.0058-.9028-.2171-1.7543-.6171-2.5257Z" opacity=".5"/><defs><radialGradient id="a" cx="0" cy="0" r="1" gradientTransform="matrix(17.845 5.39 -5.102 16.89 9.3956 5.97888)" gradientUnits="userSpaceOnUse"><stop stop-color="#975500"/><stop offset=".2776" stop-color="#8E5000"/><stop offset=".7291" stop-color="#764200"/><stop offset="1" stop-color="#643800"/></radialGradient><radialGradient id="b" cx="0" cy="0" r="1" gradientTransform="matrix(6.385 0 0 6.385 8.0016 7.8953)" gradientUnits="userSpaceOnUse"><stop stop-color="#975500"/><stop offset=".2776" stop-color="#8E5000"/><stop offset=".7291" stop-color="#764200"/><stop offset="1" stop-color="#643800"/></radialGradient><radialGradient id="c" cx="0" cy="0" r="1" gradientTransform="matrix(17.845 5.39 -5.102 16.89 9.39552 5.97886)" gradientUnits="userSpaceOnUse"><stop stop-color="#975500"/><stop offset=".2776" stop-color="#8E5000"/><stop offset=".7291" stop-color="#764200"/><stop offset="1" stop-color="#643800"/></radialGradient><radialGradient id="d" cx="0" cy="0" r="1" gradientTransform="matrix(4.976 0 0 4.976 8.9158 7.11433)" gradientUnits="userSpaceOnUse"><stop stop-color="#3C2200"/><stop offset="1" stop-color="#3C2200" stop-opacity="0"/></radialGradient><radialGradient id="k" cx="0" cy="0" r="1" gradientTransform="matrix(19.543 0 0 19.543 3.69982 3.82675)" gradientUnits="userSpaceOnUse"><stop stop-color="#7A4400"/><stop offset=".5153" stop-color="#713F00"/><stop offset="1" stop-color="#643800"/></radialGradient><radialGradient id="l" cx="0" cy="0" r="1" gradientTransform="matrix(17.187 0 0 17.187 9.16267 22.5176)" gradientUnits="userSpaceOnUse"><stop stop-color="#fff"/><stop offset="1" stop-color="#fff" stop-opacity="0"/></radialGradient><radialGradient id="m" cx="0" cy="0" r="1" gradientTransform="matrix(-1.391 -5.088 2.155 -.59 4.83952 16.6065)" gradientUnits="userSpaceOnUse"><stop stop-color="#3C2200"/><stop offset="1" stop-color="#3C2200" stop-opacity="0"/></radialGradient><radialGradient id="n" cx="0" cy="0" r="1" gradientTransform="matrix(1.391 -5.088 2.155 .59 19.1452 16.6119)" gradientUnits="userSpaceOnUse"><stop stop-color="#3C2200"/><stop offset="1" stop-color="#3C2200" stop-opacity="0"/></radialGradient><radialGradient id="o" cx="0" cy="0" r="1" gradientTransform="translate(12.0768 11.5653) scale(10.701)" gradientUnits="userSpaceOnUse"><stop stop-color="#975500"/><stop offset=".2776" stop-color="#8E5000"/><stop offset=".7291" stop-color="#764200"/><stop offset="1" stop-color="#643800"/></radialGradient><radialGradient id="q" cx="0" cy="0" r="1" gradientTransform="matrix(2.754 0 0 2.166 15.0468 11.9585)" gradientUnits="userSpaceOnUse"><stop stop-color="#975500" stop-opacity=".6"/><stop offset="1" stop-color="#975500" stop-opacity="0"/></radialGradient><radialGradient id="r" cx="0" cy="0" r="1" gradientTransform="matrix(-2.754 0 0 -2.166 8.94191 11.9585)" gradientUnits="userSpaceOnUse"><stop stop-color="#975500" stop-opacity=".6"/><stop offset="1" stop-color="#975500" stop-opacity="0"/></radialGradient><radialGradient id="s" cx="0" cy="0" r="1" gradientTransform="matrix(-3.634 0 0 -1.99 12.0342 19.3841)" gradientUnits="userSpaceOnUse"><stop stop-color="#975500" stop-opacity=".6"/><stop offset="1" stop-color="#975500" stop-opacity="0"/></radialGradient><radialGradient id="u" cx="0" cy="0" r="1" gradientTransform="matrix(-.034 1.107 -1.103 -.034 8.63387 12.007)" gradientUnits="userSpaceOnUse"><stop stop-color="#3C2200"/><stop offset="1" stop-color="#3C2200"/></radialGradient><radialGradient id="w" cx="0" cy="0" r="1" gradientTransform="matrix(1.466 -.224 .224 1.466 11.8693 16.9783)" gradientUnits="userSpaceOnUse"><stop offset=".00132565" stop-color="#7A4400"/><stop offset="1" stop-color="#643800"/></radialGradient><radialGradient id="x" cx="0" cy="0" r="1" gradientTransform="matrix(5.457 0 0 6.21 11.979 17.7963)" gradientUnits="userSpaceOnUse"><stop stop-color="#512D00"/><stop offset=".9987" stop-color="#3C2200"/></radialGradient><radialGradient id="y" cx="0" cy="0" r="1" gradientTransform="matrix(2.67 0 0 .918 12.0277 19.0729)" gradientUnits="userSpaceOnUse"><stop offset=".2479" stop-color="red"/><stop offset="1" stop-color="#C20000"/></radialGradient><radialGradient id="A" cx="0" cy="0" r="1" gradientTransform="matrix(7.36 0 0 8.376 11.9794 16.721)" gradientUnits="userSpaceOnUse"><stop offset=".00132565" stop-color="#fff"/><stop offset="1" stop-color="#A9BCBE"/></radialGradient><radialGradient id="B" cx="0" cy="0" r="1" gradientTransform="matrix(2.106 0 0 .924 11.9921 13.9113)" gradientUnits="userSpaceOnUse"><stop stop-color="#fff"/><stop offset="1" stop-color="#fff" stop-opacity="0"/></radialGradient><radialGradient id="C" cx="0" cy="0" r="1" gradientTransform="matrix(-.034 1.107 -1.103 -.034 15.4599 12.007)" gradientUnits="userSpaceOnUse"><stop stop-color="#3C2200"/><stop offset="1" stop-color="#3C2200"/></radialGradient><radialGradient id="F" cx="0" cy="0" r="1" gradientTransform="rotate(-171.3 6.7073452 8.0364156) scale(1.483)" gradientUnits="userSpaceOnUse"><stop offset=".00132565" stop-color="#7A4400"/><stop offset="1" stop-color="#643800"/></radialGradient><linearGradient id="e" x1="17.8286" x2="21.2077" y1="9.47706" y2="5.71785" gradientUnits="userSpaceOnUse"><stop stop-color="#643800"/><stop offset="1" stop-color="#975500"/></linearGradient><linearGradient id="f" x1="6.15562" x2="2.77655" y1="9.47706" y2="5.71785" gradientUnits="userSpaceOnUse"><stop stop-color="#643800"/><stop offset="1" stop-color="#975500"/></linearGradient><linearGradient id="g" x1="18.2754" x2="18.2754" y1="12.2469" y2="4.7102" gradientUnits="userSpaceOnUse"><stop stop-color="#FCD2A8"/><stop offset="1" stop-color="#E36179"/></linearGradient><linearGradient id="h" x1="18.8282" x2="18.8282" y1="11.8506" y2="4.82324" gradientUnits="userSpaceOnUse"><stop stop-color="#F78174"/><stop offset="1" stop-color="#E36179"/></linearGradient><linearGradient id="i" x1="5.70885" x2="5.70885" y1="12.2468" y2="4.7101" gradientUnits="userSpaceOnUse"><stop stop-color="#FCD2A8"/><stop offset="1" stop-color="#E36179"/></linearGradient><linearGradient id="j" x1="5.15617" x2="5.15617" y1="11.8506" y2="4.82324" gradientUnits="userSpaceOnUse"><stop stop-color="#F78174"/><stop offset="1" stop-color="#E36179"/></linearGradient><linearGradient id="p" x1="11.9921" x2="11.9921" y1="19.8711" y2="3.98723" gradientUnits="userSpaceOnUse"><stop stop-color="#FBB87A"/><stop offset=".3785" stop-color="#FCD2A8"/><stop offset="1" stop-color="#E89043"/></linearGradient><linearGradient id="t" x1="11.9923" x2="11.9923" y1="15.997" y2="12.671" gradientUnits="userSpaceOnUse"><stop stop-color="#7A4400" stop-opacity="0"/><stop offset="1" stop-color="#A3541E"/></linearGradient><linearGradient id="v" x1="8.12664" x2="8.62456" y1="11.3942" y2="12.4767" gradientUnits="userSpaceOnUse"><stop stop-color="#A3541E"/><stop offset="1" stop-color="#512D00"/></linearGradient><linearGradient id="z" x1="11.9917" x2="11.9917" y1="20.5177" y2="18.3438" gradientUnits="userSpaceOnUse"><stop stop-color="#3C2200"/><stop offset="1" stop-color="#362501"/></linearGradient><linearGradient id="D" x1="14.9527" x2="15.4506" y1="11.3942" y2="12.4767" gradientUnits="userSpaceOnUse"><stop stop-color="#A3541E"/><stop offset="1" stop-color="#512D00"/></linearGradient><linearGradient id="E" x1="11.2727" x2="11.1485" y1="15.7018" y2="14.4939" gradientUnits="userSpaceOnUse"><stop offset=".00132565" stop-color="#3C2200"/><stop offset=".5" stop-color="#512D00"/><stop offset="1" stop-color="#3C2200"/></linearGradient><linearGradient id="G" x1="12.7115" x2="12.8357" y1="15.7018" y2="14.4939" gradientUnits="userSpaceOnUse"><stop offset=".00132565" stop-color="#3C2200"/><stop offset=".5" stop-color="#512D00"/><stop offset="1" stop-color="#3C2200"/></linearGradient><linearGradient id="H" x1="7.61199" x2="7.61199" y1="22.3902" y2="-4.36228" gradientUnits="userSpaceOnUse"><stop stop-color="#3C2200"/><stop offset="1" stop-color="#3C2200" stop-opacity="0"/></linearGradient><linearGradient id="I" x1="16.3592" x2="16.3592" y1="22.3905" y2="-4.36195" gradientUnits="userSpaceOnUse"><stop stop-color="#3C2200"/><stop offset="1" stop-color="#3C2200" stop-opacity="0"/></linearGradient></defs></svg>