<svg xmlns="http://www.w3.org/2000/svg" xml:space="preserve" width="800" height="800" viewBox="0 0 580.711 580.711"><path d="M573.211 113.437c-1.762-.906-3.65-1.567-5.434-2.44-11.85-5.818-23.682-11.665-35.518-17.507-.094-.049-.125-.22-.273-.494 1.42-1.106 2.861-2.244 4.318-3.358 1.211-.93 1.762-2.158 1.207-3.582-.734-1.881-1.975-3.603-2.453-5.528-1.047-4.207-4.736-5.704-7.734-7.724-3.027-2.036-6.582-3.28-9.842-4.986-2.012-1.053-3.979-2.219-5.842-3.513-4.207-2.921-8.234-6.12-12.525-8.907-6.193-4.023-13.191-5.443-20.49-5.732-2.26-.09-4.504-.542-6.756-.828h-6.023c-.33.122-.652.29-.99.363-5.871 1.322-11.828 2.342-17.598 4.011-8.748 2.53-16.447 6.908-21.689 14.676-1.076 1.6-1.645 3.562-2.33 5.402-.543 1.453-.627 3.142-1.398 4.435-1.783 2.991-3.754 5.892-5.844 8.678-4.43 5.908-11.455 9.323-15.34 15.786-6.582 4.659-13.203 9.351-20.885 11.954-7.631 2.583-15.6 3.709-23.678 4.092-2.023.098-4.43.604-5.879 1.84-1.277 1.089-2.383 2.036-4.002 2.346-4.459.857-8.955 1.563-13.371 2.611-2.305.547-4.41 1.922-6.711 2.505-6.174 1.562-12.387 2.978-18.613 4.3-5.344 1.135-10.738 2.02-16.095 3.101-4.3.869-8.581 1.865-12.864 2.815-2.897.641-5.859 1.082-8.666 1.991-9.086 2.942-18.197 5.602-27.891 5.483-2.346-.028-4.732.2-7.034.645-4.435.856-8.801 1.873-13.146 3.305-4.916 1.62-10.31 2.056-15.537 2.411-8.348.563-16.728.661-25.096.877-1.024.024-2.077-.396-3.089-.702-4.337-1.305-7.503-4.198-10.367-7.568-2.073-2.439-4.113-4.994-6.589-6.968-2.125-1.697-4.798-2.762-7.315-3.909-9.804-4.459-19.592-8.911-30.065-11.718-6.667-1.787-13.313-3.052-20.229-2.677-.42.024-.849-.163-1.457-.286.494-.392.743-.591 1.159-.922-4.676 0-9.151-.485-13.484.102-8.548 1.155-16.577 4.015-23.211 9.804-3.146 2.746-6.76 5.374-8.833 8.85-4.766 7.984-9.225 16.238-12.873 24.782-4.28 10.024-7.805 20.4-11.179 30.775-1.501 4.615-1.787 9.617-2.705 14.423-.64 3.342-1.464 6.65-2.125 9.988-1.869 9.466-3.721 18.919-7.373 27.936-1.13 2.787-1.734 5.883-2.032 8.89-.649 6.524-1.379 13.02-3.484 19.258-2.868 8.499-5.863 16.96-15.059 20.93-.316.136-.589.377-.879.572v2.15c.286.592.881 1.229.804 1.762-.29 1.926.714 2.624 2.313 3.199 4.406 1.583 8.172.347 11.457-2.582 9.119-8.124 16.137-17.749 19.355-29.646 4.517-16.695 9.184-33.382 12.787-50.286 2.832-13.281 6.769-26.198 10.506-39.197.686-2.383 1.518-4.725 2.162-7.12 2.628-9.788 6.34-18.858 14.705-25.41 3.366-2.636 6.891-4.015 11.089-4.325 6.634-.494 12.615 1.301 18.466 4.271 6.809 3.456 11.803 8.866 16.777 14.398 2.742 3.048 5.577 6.132 9.967 6.132-.408.869-.897 1.852-1.338 2.856-.444 1.016-.636 2.211-1.297 3.043-1.514 1.897-3.211 3.656-4.9 5.41-4.239 4.406-7.916 9.245-10.535 14.766-3.46 7.299-4.953 15.125-5.173 23.15-.18 6.5-.192 12.995-1.783 19.355-.836 3.346-2.032 6.646-2.477 10.041-.608 4.659-.514 9.404-.979 14.084-.526 5.312-1.322 10.6-2.036 15.892-.42 3.097-1.228 6.173-1.306 9.274-.191 7.662-.188 15.333-.032 22.995.236 11.701 1.236 23.297 4.21 34.717 2.411 9.249 5.063 18.217 12.256 25.084.983.938 1.412 2.166-.677 2.578-.494.098-.93.551-1.371.869-2.905 2.105-5.561 4.794-8.784 6.132-2.342.972-3.031 2.53-3.904 4.305-1.881 3.823-3.501 7.785-5.574 11.497-3.015 5.41-6.417 10.601-9.498 15.974-4.451 7.76-9.453 15.1-17.099 20.004-5.431 3.484-10.474 7.364-15.455 11.457-8.164 6.707-8.613 15.602-3.146 23.737 1.567 2.334 4.088 4.093 4.378 7.214.017.163.273.306.417.457 1.142 1.195 2.317 2.357 3.415 3.586 3.317 3.717 6.981 7.205 9.809 11.269 3.142 4.513 5.691 9.47 8.164 14.398 2.321 4.627 3.811 9.576 10.351 10.163 5.239.474 8.413-.746 10.469-5.435.11-.248.216-.497.241-.559-.853-1.452-3.529-.841-3.292-3.599 3.603.266 7.058.298 10.437.828 3.688.58 7.462 1.22 10.906 2.579 3.199 1.261 6.353 1.673 9.617 1.383 1.921-.171 4.488.567 5.304-2.432.078-.286 1.404-.408 2.093-.294.579.098 1.126.604 1.611 1.024 3.027 2.627 6.365 2.048 9.658.8.779-.298 1.628-1.314 1.812-2.143.979-4.386-1.963-11.081-5.753-13.354-1.995-1.191-4.031-2.321-6.108-3.366-2.742-1.375-5.541-2.632-8.319-3.941-.898-.424-1.816-.808-2.697-1.265-2.138-1.109-4.263-2.248-6.389-3.387-4.251-2.284-9.188-2.28-13.607-4.451-4.37-2.146-7.829-5.071-11.228-8.303-1.514-1.44-1.465-2.876-.224-4.504 1.297-1.697 2.228-3.726 3.705-5.227 2.427-2.465 5.08-4.745 7.821-6.862 1.652-1.277 3.778-1.926 5.479-3.154 4.973-3.599 9.947-7.213 14.725-11.061 6.842-5.508 14.305-10.277 20.196-16.933 3.656-4.129 7.303-8.282 11.196-12.179 7.748-7.752 15.651-15.349 23.529-22.97 1.889-1.828 2.852-1.767 4.562.253.955 1.13 1.546 2.566 2.48 3.721 3.607 4.447 8.197 7.364 13.786 8.702.657.159 1.677.511 1.792.959.938 3.688 1.705 7.422 2.501 11.146.037.176-.114.408-.212.596-2.044 3.938-2.489 8.168-2.105 12.489.392 4.39.996 8.756 1.53 13.134.225 1.832.481 3.663.763 5.487.804 5.259 1.693 10.506 2.423 15.777.4 2.896.363 5.858.853 8.735.845 4.97 1.191 9.869.143 14.871-1.15 5.5-1.036 11.212-3.9 16.406-1.534 2.778-2.028 6.152-2.803 9.307-.196.8.029 2.134.583 2.603 1.718 1.448 3.599 2.767 5.573 3.84 6.173 3.354 12.521 6.393 18.605 9.894 5.483 3.154 11.31 4.937 17.532 5.459 2.974.249 5.994-.11 8.988-.028 13.178.363 26.349.865 39.531 1.13 2.884.058 5.825-.444 8.657-1.068 1.783-.393 4.195-.278 4.684-2.987.041-.22.857-.437 1.303-.416 1.645.077 3.32.551 4.92.347 5.785-.734 11.547-1.648 17.299-2.611.385-.064.926-1.134.85-1.652-.408-2.786-2.168-4.553-4.717-5.577-3.229-1.297-6.451-2.595-9.695-3.848-5.959-2.305-11.99-4.341-18.367-5.246-4.843-.686-9.727-1.343-14.439-2.6-7.826-2.085-15.777-2.313-23.771-2.501-3.913-.09-7.715-.734-10.93-3.101-.996-.734-1.881-1.999-2.215-3.187-1.041-3.688.339-7.189 1.51-10.592 1.342-3.884 3.39-7.544 4.496-11.485 2.529-9.009 4.533-18.16 7.013-27.181 1.734-6.312 2.852-12.648 2.505-19.196-.229-4.288-.498-8.576-.857-12.856-.608-7.233 2.481-13.79 3.855-20.641.824-4.108 3.044-7.919 4.476-11.922.861-2.411 1.571-4.978.547-7.507-1.856-4.578-2.249-9.348-2.46-14.215-.2-4.554-.469-9.151-1.338-13.611-.955-4.896-2.868-9.547-6.495-13.219-2.326-2.358-3.938-5.026-4.194-8.396-.029-.347-.045-.951-.192-.991-2.028-.571-1.856-2.448-2.358-3.896-2.028-5.88-4.223-11.714-5.969-17.679-1.469-5.019-1.767-10.458-3.725-15.243-.053-.13-.102-.261-.155-.388 3.664.29 7.323.261 10.991.583 3.337.6 6.589 1.498 9.764 2.693 3.366 1.591 6.544 3.505 9.535 5.745-.175-.135-.351-.273-.53-.408.873.637 1.75 1.203 2.652 1.685 4.823 3.636 9.764 7.214 15.084 9.996 4.056 2.122 8.828 3.239 13.41 3.884 4.357.616 8.111 1.698 11.254 4.913.922.942 2.562 1.424 3.945 1.624 2.32.334 4.725.102 7.055.416 3.643.493 7.254 1.771 10.873 1.742 3.426-.024 6.52.677 9.686 1.648.857.261 1.852.139 2.773.085 4.271-.253 8.541-.697 12.812-.767 2.934-.049 5.699.877 7.654 2.383-.348 2.587-.73 4.736-.914 6.903-.363 4.264-.381 8.572-.988 12.795-.473 3.276-1.721 6.43-2.469 9.674-.926 4.006-1.738 8.041-2.521 12.076-1.068 5.5-2.215 10.992-3.023 16.532-.297 2.04-.113 4.056-1.477 5.859-.547.722-.604 1.86-.738 2.831-.445 3.248-.795 6.508-1.232 9.76-.574 4.304-1.615 8.592-1.709 12.9-.236 10.755-3.162 20.906-6.486 30.955-1.805 5.447-4.787 10.519-6.387 16.006-2.436 8.36-3.883 17.006-6.242 25.395-1.162 4.141.115 7.972.15 11.941.006.633.502 1.314.898 1.881 2.35 3.358 5.623 4.807 9.689 4.88 6.859.127 13.693.6 20.531 1.224 4.688.429 9.424.372 14.141.421 1.188.012 2.486-.163 3.547-.653 3.275-1.514 6.314-1.053 9.379.56 2.592 1.362 6.076-.11 6.23-2.113-1.176-.865-2.174-1.604-3.354-2.477 1.645-.494 2.721-.816 3.799-1.143-.604-1.322-1.164-2.669-1.836-3.954-.254-.485-.797-.815-1.168-1.252-3.324-3.905-7.988-5.578-12.537-7.345-2.256-.877-4.578-1.37-7.213-1.117-2.723.261-5.582-.62-8.336-1.2-1.648-.347-3.316-.885-4.803-1.668-2.811-1.478-3.496-3.452-2.342-6.431 1.48-3.811 2.908-7.662 4.676-11.342 4.02-8.389 8.404-16.606 12.322-25.043 4.729-10.185 9.195-20.49 13.615-30.812 1.186-2.778 1.867-5.79 2.619-8.735.75-2.945 1.008-6.038 1.979-8.898 3.635-10.678 7.584-21.245 11.191-31.93 1.578-4.685 2.619-9.548 3.904-14.329.217-.033.428-.069.645-.103.645 1.139 1.584 2.203 1.873 3.428.518 2.183.73 4.451.922 6.695.352 4.129.486 8.278.926 12.398.191 1.779.576 3.701 1.465 5.211 2.023 3.431 4.125 6.769 4.826 10.783.314 1.815.824 3.594 1.209 5.397.93 4.357 2.256 8.687 2.623 13.089.293 3.505 1.357 6.475 3.092 9.384.461.775.787 1.705.906 2.599.906 6.83 1.734 13.673 2.623 20.507.098.755.42 1.477.621 2.219 1.51 5.521 3.336 10.979 4.426 16.577.936 4.794 1.016 9.756 2.934 14.357 1.188 2.853 1.188 5.77.771 8.813-.408 2.966-1.041 5.973 1.477 8.687 1.359 1.464 2.24 3.61 2.717 5.602 1.842 7.649 3.387 15.365 5.129 23.04.797 3.517 1.711 7.009 2.713 10.473.418 1.437 1.434 2.188 3.127 2.416 7.396.991 14.793 2.044 22.133 3.37 3.375.607 6.846 1.48 8.996 4.663h2.15c2.355-.429 4.701-.886 7.059-1.285 2.795-.47 5.762-.474 8.34-1.478 1.779-.693 3.23-1.023 5.01-.53 2.037.563 2.844-.073 2.307-2.06-.318-1.188-1.348-2.188-2.094-3.248-.191-.273-.719-.44-.734-.682-.15-2.424-2.273-3.125-3.754-4.357-1.529-1.277-3.33-2.272-4.709-3.684-5.609-5.745-12.717-8.74-20.139-11.086-3.59-1.134-7.422-5.12-7.609-8.902-.547-10.938-1.473-21.89-1.398-32.828.123-17.833.906-35.663 1.443-53.492.104-3.362.322-6.72.555-10.078.486-6.984 1.254-13.958 1.449-20.951.135-4.843-.535-9.706-.768-14.565-.277-5.793-.525-11.587-.701-17.385-.24-8.005-.857-16.075 1.082-23.933 2.287-9.282 4.977-18.462 7.543-27.675 1.387-4.974 3.207-9.788 3.766-15.027.727-6.846 2.012-13.635 3.184-20.429.963-5.589 2.283-11.118 3.137-16.72.877-5.769 1.469-11.583 2.016-17.393.363-3.872.51-7.772.6-11.665.102-4.549-.387-9.152.15-13.644.551-4.623 5.639-8.87 9.539-8.87 3.492 0 4.027-.551 4.129-4.186-.656-.249-1.301-.494-2.223-.845 2.555-.792 4.643-1.436 6.736-2.085-.053-.146-.104-.298-.156-.444-1.236-.192-2.473-.384-3.709-.575.018-.204.037-.408.055-.612h5.283c0-1.236-.09-2.383.041-3.505.061-.522.453-1.326.848-1.432 2.053-.559 4.158-.914 6.234-1.387.514-.119 1.289-.298 1.432-.649.67-1.706 2.045-1.538 3.404-1.481 2.1.09 4.039-.277 6.217-2.248-1.945-.18-3.312-.302-4.977-.453 1.305-.836 2.387-1.481 3.414-2.199 8.119-5.671 17.021-8.181 26.684-5.357 5.564 1.628 10.078.167 14.574-2.668.721-.457 1.549-.816 2.133-1.412 3.326-3.382 5.965-7.609 3.619-12.378-.633-1.29-.412-2.232.191-3.362 2.004-3.737 2.633-7.593 1.064-11.706-.338-.885-.26-2.118.078-3.023.506-1.346 1.412-2.542 2.146-3.798v-2.15c-1.145-4.041-3.914-6.665-7.506-8.508zM224.413 247.215c-.021-.114-.045-.232-.07-.347.171-.021.335-.028.506-.049-.147.131-.294.262-.436.396z"/></svg>