<svg xmlns="http://www.w3.org/2000/svg" xml:space="preserve" width="800" height="800" viewBox="0 0 487.048 487.048"><path d="m258.112 237.369 14.798 29.568c15.322 30.614 4.215 67.319-24.76 81.821-.051.026-.103.051-.154.076-7.819 3.884-16.28 5.839-24.871 5.839-6.846 0-13.774-1.24-20.531-3.735-15.083-5.567-27.437-16.72-34.785-31.399l-14.797-29.568c-2.225-4.444-.424-9.852 4.021-12.076 4.444-2.225 9.851-.424 12.076 4.021l14.797 29.567c5.293 10.575 14.144 18.591 24.922 22.569 10.57 3.901 21.673 3.409 31.262-1.39.041-.021.081-.04.122-.06 20.011-10.103 27.46-35.913 16.602-57.609l-14.798-29.568c-2.225-4.445-.425-9.853 4.021-12.076 4.442-2.229 9.85-.426 12.075 4.02zm45.572-200.888-2.24 11.861c15.537 21.026 25.453 40.787 24.919 65.515-.59 27.314-13.751 58.378-42.564 100.254l21.436 42.83c11.07-36.502 26.174-86.213 38.121-102.677 15.512-21.381 40.458-31.091 63.558-24.734 15.506 4.266 28.139 15.081 35.571 30.454 7.235 14.966 8.655 32.527 3.999 49.45-7.629 27.729-34.06 44.723-58.922 37.884-24.862-6.842-38.881-34.967-31.251-62.694 5.523-20.079 24.798-32.354 42.97-27.354 18.167 4.999 28.455 25.403 22.933 45.485-3.422 12.434-15.542 19.979-27.02 16.821-5.698-1.568-10.501-5.645-13.179-11.185-2.521-5.215-3.028-11.284-1.43-17.092 1.319-4.793 6.277-7.609 11.066-6.288 4.792 1.319 7.608 6.273 6.289 11.065-.435 1.579-.332 3.212.281 4.479.301.623.848 1.417 1.749 1.665 1.635.439 4.071-1.271 4.889-4.242 2.89-10.511-1.753-20.988-10.352-23.354-8.602-2.368-17.949 4.261-20.84 14.772-4.997 18.16 3.379 36.356 18.671 40.564 15.292 4.203 31.796-7.144 36.792-25.304 3.5-12.718 2.488-25.801-2.849-36.84-5.14-10.631-13.713-18.065-24.14-20.934-15.794-4.345-33.149 2.7-44.214 17.95-10.217 14.08-26.105 66.469-35.598 97.77-2.923 9.639-5.488 18.098-7.549 24.449 1.706 12.663.72 25.415-2.694 37.458 7.002-.696 14.148.089 21.046 2.386 8.986 2.991 16.771 8.286 22.701 15.317l9.771-4.89c17.299-8.656 38.416-1.625 47.075 15.671 1.068 2.135 1.246 4.607.492 6.872-.754 2.266-2.377 4.139-4.512 5.207l-39.889 19.963c-4.445 2.226-9.852.426-12.076-4.02l-10.359-20.697c-.011-.022-.022-.045-.034-.067-3.873-7.738-10.569-13.52-18.854-16.278-8.028-2.672-16.564-2.18-24.127 1.378-8.686 15.156-21.76 28.015-38.5 36.422-.039.021-.077.04-.116.059-16.319 8.169-34.327 11.229-52.122 9.044-6.564 3.984-11.465 10.135-13.938 17.563-2.758 8.286-2.144 17.11 1.729 24.849l.042.084 10.353 20.683c1.068 2.135 1.245 4.606.491 6.871-.754 2.265-2.377 4.138-4.512 5.206l-39.89 19.963c-1.285.643-2.662.952-4.023.952-2.759 0-5.456-1.271-7.205-3.601l-.001-.002c-.323-.432-.607-.891-.848-1.372-4.181-8.354-4.85-17.861-1.884-26.772s9.201-16.121 17.555-20.302l9.77-4.89c-2.075-8.962-1.647-18.368 1.345-27.354 2.125-6.386 5.415-12.166 9.664-17.104-21.956-8.178-39.688-24.044-50.164-44.976l-24.58-49.113c-3.77 4.527-6.265 10.025-7.146 15.983l-11.842 80.195 28.777 22.104c1.893 1.454 3.131 3.601 3.441 5.968.311 2.366-.332 4.76-1.786 6.652l-8.991 11.705c-4.832 6.291-11.847 10.327-19.752 11.363-7.908 1.038-15.724-1.054-22.014-5.887-6.291-4.831-10.327-11.847-11.363-19.752-1.037-7.904 1.053-15.723 5.886-22.013l7.564-9.85 12.274-83.115c1.898-12.856 8.615-24.321 18.734-32.28-1.525-10.803.143-21.851 4.831-31.779-6.769 2.591-14.18 2.759-21.182.429-6.259-2.084-11.585-5.963-15.406-11.145l-5.564 2.785c-7.094 3.552-15.167 4.119-22.732 1.602-7.565-2.519-13.686-7.813-17.235-14.907-3.55-7.092-4.119-15.165-1.601-22.729 2.519-7.564 7.812-13.686 14.905-17.236l6.222-3.114c-6.412-21.447-2.875-43.685 10.419-63.835 21.873-33.161 66.925-55.485 107.1-53.096 24.292 1.449 44.254 11.739 57.487 29.342l6.268-3.137c7.092-3.552 15.164-4.119 22.73-1.602 7.565 2.519 13.687 7.813 17.236 14.906 3.55 7.093 4.119 15.166 1.601 22.73-2.518 7.565-7.812 13.687-14.906 17.236l-5.563 2.785c1.856 6.164 1.77 12.751-.314 19.011-2.331 7.001-6.906 12.833-13.038 16.698 12.615 2.578 23.97 9.402 32.142 19.377 50.421-75.986 38.305-105.303 10.91-141.109L249.8 49.279c-4.884-.923-8.096-5.63-7.173-10.514l.432-2.284H73.728c-4.971 0-9-4.029-9-9s4.029-9 9-9h173.348c5.252-12.807 18.97-20.628 33.084-17.96 10.264 1.938 18.307 8.956 22.02 17.96h146.041c4.971 0 9 4.029 9 9s-4.029 9-9 9H303.684zm-17.309-7.741c-.023-.165-.042-.332-.056-.5-.654-4.902-4.378-9.064-9.498-10.031-6.389-1.207-12.562 3.009-13.768 9.395l-1.069 5.659 23.162 4.375c.001-.001 1.324-7.842 1.229-8.898zm-196.9 375.539-3.508 4.567c-1.903 2.479-2.725 5.571-2.313 8.709.411 3.138 2.003 5.914 4.481 7.817s5.568 2.724 8.708 2.314c3.138-.411 5.914-2.003 7.817-4.481l3.509-4.567-18.694-14.359zm101.164 49.785-3.619-7.23-8.517 4.263c-4.055 2.029-7.084 5.541-8.532 9.891-.419 1.26-.69 2.542-.814 3.828l21.482-10.752zm174.502-96.38 3.619 7.23 21.496-10.758c-4.87-2.987-11.126-3.474-16.599-.734l-8.516 4.262zM236.685 104.488l10.55 21.078 5.149-2.577c2.795-1.398 4.884-3.822 5.884-6.825 1-3.002.78-6.194-.619-8.988-1.398-2.795-3.822-4.885-6.825-5.884-3.002-1.001-6.196-.781-8.989.618l-5.15 2.578zM70.037 214.253l-10.55-21.079-5.15 2.578c-5.812 2.908-8.173 10.003-5.265 15.814 1.398 2.795 3.822 4.884 6.825 5.884 3.002.997 6.195.778 8.99-.619l5.15-2.578zm36.23 10.454-17.569-35.103c-7.997-15.981 1.31-35.144 22.129-45.563 11.613-5.813 23.258-7.127 32.672-4.377 3.442-9.186 11.474-17.719 23.089-23.532 20.819-10.421 41.735-6.383 49.732 9.597l17.568 35.104c1.629-1.522 2.866-3.446 3.595-5.638 1.147-3.444.895-7.107-.71-10.314l-17.952-35.868c-12.135-24.248-33.816-30.479-49.868-31.436-33.62-2.009-72.747 17.357-91.009 45.041-8.727 13.229-16.527 34.197-4.13 58.968l16.323 32.612c.008.016.016.031.023.046.007.016.015.03.022.046l1.585 3.166c1.605 3.207 4.386 5.605 7.829 6.751 2.193.73 4.476.895 6.671.5zm19.864-2.43c1.522 1.344 3.36 2.261 5.315 2.687.285.037.569.088.851.152 2.292.33 4.699-.015 6.919-1.126 1.292-.646 2.667-.953 4.02-.953 3.3 0 6.478 1.821 8.055 4.974 8.038 16.061 27.645 22.587 43.706 14.55 7.739-3.874 13.521-10.57 16.279-18.855 2.758-8.286 2.144-17.11-1.729-24.85-2.225-4.445-.425-9.852 4.02-12.076 2.214-1.108 3.928-2.825 5.04-4.847.122-.276.257-.547.405-.809.826-1.817 1.19-3.834 1.026-5.854-.03-.21-.053-.42-.068-.63-.169-1.248-.544-2.489-1.138-3.678l-18.606-37.176c-4.215-8.425-17.606-5.545-25.58-1.557-7.972 3.99-18.303 12.984-14.086 21.409 2.225 4.445.425 9.852-4.02 12.076-4.444 2.226-9.852.425-12.077-4.02-.003-.007-.006-.013-.01-.02-4.228-8.4-17.603-5.523-25.568-1.537-7.973 3.99-18.304 12.984-14.088 21.41l18.606 37.175c.593 1.186 1.361 2.228 2.256 3.11.161.144.318.29.472.445zm138.235-6.777c-6.256-12.5-18.719-20.431-32.525-21.029-.976 1.266-2.059 2.458-3.245 3.564 3.248 10.13 3.198 21.02-.242 31.354-4.277 12.848-13.263 23.241-25.302 29.266-22.566 11.293-49.642 4.067-63.834-15.889-1.595.286-3.199.438-4.796.462-6.239 9.128-8.204 20.38-5.537 30.916.05.172.095.345.135.518.659 2.456 1.57 4.87 2.74 7.206l25.4 50.751c8.822 17.628 24.063 30.793 42.915 37.068 3.86 1.285 7.772 2.248 11.705 2.892.335.033.667.085.995.155 14.917 2.235 30.081-.12 43.77-6.946.034-.018.068-.035.103-.052 29.418-14.724 44.785-46.497 40.131-77.396-.094-.406-.161-.82-.197-1.239-1.19-7.081-3.438-14.103-6.815-20.851l-25.401-50.75zm-129.589-25.968c4.446-2.223 6.249-7.629 4.026-12.074-2.222-4.445-7.626-6.248-12.074-4.027l-1.452.726c-4.446 2.223-6.249 7.629-4.026 12.074 1.577 3.154 4.755 4.979 8.057 4.979 1.352 0 2.725-.306 4.017-.951l1.452-.727zm50.355 25.49c-.012.491-.176 1.255-.886 2.105-1.616 1.936-4.408 2.26-5.825 1.252-4.051-2.88-9.671-1.928-12.549 2.124-2.879 4.052-1.928 9.671 2.124 12.55 3.718 2.642 8.063 3.918 12.422 3.918 6.537 0 13.107-2.87 17.647-8.309 3.146-3.769 4.944-8.454 5.062-13.193.124-4.97-3.805-9.098-8.774-9.221-4.981-.149-9.098 3.805-9.221 8.774zm-14.737-10.813c1.352 0 2.724-.306 4.015-.95l1.453-.726c4.447-2.222 6.251-7.627 4.03-12.073-2.222-4.448-7.628-6.25-12.073-4.03l-1.453.726c-4.447 2.222-6.251 7.627-4.03 12.073 1.576 3.156 4.756 4.98 8.058 4.98zm14.222-40.681c1.355 0 2.731-.308 4.026-.956l1.452-.728c4.443-2.227 6.24-7.635 4.013-12.078-2.228-4.444-7.634-6.239-12.079-4.014l-1.452.728c-4.443 2.227-6.241 7.635-4.013 12.078 1.579 3.15 4.755 4.97 8.053 4.97zm36.844 142.71c1.356 0 2.733-.308 4.027-.957l1.451-.728c4.443-2.229 6.239-7.637 4.01-12.079-2.228-4.442-7.636-6.239-12.08-4.011l-1.451.728c-4.443 2.229-6.239 7.637-4.01 12.079 1.58 3.148 4.755 4.968 8.053 4.968z"/></svg>